<svg width="602" height="374" viewBox="0 0 602 374" fill="none" xmlns="http://www.w3.org/2000/svg">
<path d="M28.9043 321.017C26.4309 321.017 24.2163 321.506 22.2606 322.484C20.3624 323.462 18.7518 324.871 17.4289 326.712C16.1059 328.495 15.0993 330.681 14.409 333.269C13.7763 335.858 13.4599 338.762 13.4599 341.984C13.4599 346.355 13.9776 350.094 15.013 353.2C16.1059 356.249 17.8027 358.578 20.1036 360.189C22.4044 361.8 25.338 362.605 28.9043 362.605C31.4352 362.605 33.9374 362.317 36.4108 361.742C38.9417 361.167 41.674 360.362 44.6075 359.326V370.284C41.904 371.377 39.2293 372.182 36.5833 372.7C33.9374 373.217 30.975 373.476 27.6964 373.476C21.369 373.476 16.1346 372.182 11.9931 369.594C7.90914 366.948 4.88928 363.266 2.93357 358.55C0.977857 353.775 0 348.225 0 341.897C0 337.238 0.632731 332.982 1.89819 329.128C3.16365 325.216 5.00433 321.851 7.42021 319.033C9.89361 316.214 12.9135 314.028 16.4798 312.475C20.1036 310.922 24.2451 310.146 28.9043 310.146C31.9529 310.146 35.0015 310.548 38.0501 311.354C41.1563 312.101 44.1186 313.137 46.9371 314.46L42.7093 325.072C40.4085 323.979 38.0789 323.03 35.7205 322.225C33.4197 321.42 31.1476 321.017 28.9043 321.017Z" fill="white"/>
<path d="M98.4229 337.842C98.4229 340.373 97.6176 342.53 96.007 344.313C94.4539 346.096 92.1243 347.247 89.0182 347.764V348.11C92.2969 348.512 94.9141 349.634 96.8698 351.475C98.8831 353.315 99.8897 355.674 99.8897 358.55C99.8897 360.563 99.487 362.432 98.6817 364.158C97.934 365.884 96.726 367.379 95.0579 368.645C93.3898 369.91 91.2328 370.888 88.5868 371.578C85.9984 372.268 82.8347 372.613 79.0958 372.613H56.6627V325.504H79.0958C82.7772 325.504 86.0559 325.906 88.9319 326.712C91.8655 327.46 94.1663 328.725 95.8344 330.508C97.5601 332.291 98.4229 334.736 98.4229 337.842ZM86.6023 357.859C86.6023 356.019 85.8833 354.696 84.4453 353.89C83.0073 353.028 80.8502 352.596 77.9742 352.596H69.5186V363.726H78.233C80.6489 363.726 82.6334 363.295 84.1865 362.432C85.797 361.512 86.6023 359.988 86.6023 357.859ZM85.3944 338.877C85.3944 337.382 84.8192 336.289 83.6688 335.599C82.5183 334.908 80.8215 334.563 78.5782 334.563H69.5186V343.882H77.1114C79.8149 343.882 81.8568 343.508 83.2374 342.76C84.6754 341.955 85.3944 340.661 85.3944 338.877Z" fill="white"/>
<path d="M118.087 372.613H104.196L116.879 353.977C115.268 353.286 113.744 352.366 112.306 351.216C110.926 350.008 109.804 348.483 108.941 346.643C108.078 344.802 107.647 342.616 107.647 340.085C107.647 335.369 109.43 331.774 112.996 329.3C116.563 326.769 121.136 325.504 126.715 325.504H148.631V372.613H135.775V355.098H128.7L118.087 372.613ZM120.244 340.172C120.244 342.127 121.021 343.68 122.574 344.831C124.127 345.924 126.14 346.47 128.613 346.47H135.775V334.563H126.974C124.673 334.563 122.976 335.139 121.883 336.289C120.79 337.382 120.244 338.676 120.244 340.172Z" fill="white"/>
<path d="M179.241 324.641C182.635 324.641 185.798 325.101 188.732 326.021C191.723 326.884 194.11 328.236 195.893 330.077C197.734 331.917 198.654 334.276 198.654 337.152C198.654 339.97 197.792 342.214 196.066 343.882C194.398 345.55 192.126 346.758 189.25 347.506V347.937C191.263 348.397 193.075 349.059 194.685 349.921C196.296 350.727 197.561 351.848 198.482 353.286C199.46 354.667 199.949 356.536 199.949 358.895C199.949 361.483 199.115 363.899 197.446 366.142C195.836 368.328 193.305 370.111 189.854 371.492C186.46 372.815 182.088 373.476 176.739 373.476C174.208 373.476 171.821 373.361 169.577 373.131C167.334 372.901 165.292 372.585 163.451 372.182C161.611 371.722 160 371.175 158.62 370.543V359.93C160.575 360.85 162.963 361.684 165.781 362.432C168.657 363.18 171.706 363.554 174.927 363.554C177.285 363.554 179.385 363.381 181.225 363.036C183.124 362.691 184.619 362.116 185.712 361.311C186.863 360.505 187.438 359.441 187.438 358.118C187.438 356.853 186.949 355.817 185.971 355.012C184.993 354.149 183.526 353.517 181.571 353.114C179.615 352.711 177.113 352.51 174.064 352.51H169.06V343.623H173.805C178.062 343.623 181.341 343.278 183.641 342.588C186 341.897 187.179 340.603 187.179 338.705C187.179 337.209 186.431 336.088 184.936 335.34C183.44 334.535 180.995 334.132 177.602 334.132C175.358 334.132 172.914 334.391 170.268 334.908C167.622 335.426 165.12 336.174 162.761 337.152L158.965 328.179C161.668 327.143 164.631 326.309 167.852 325.676C171.073 324.986 174.869 324.641 179.241 324.641Z" fill="white"/>
<path d="M231.846 343.709C236.677 343.709 240.675 344.227 243.839 345.262C247.003 346.24 249.332 347.764 250.828 349.835C252.381 351.906 253.157 354.494 253.157 357.601C253.157 360.649 252.438 363.295 251 365.538C249.62 367.782 247.405 369.536 244.357 370.802C241.308 372.01 237.31 372.613 232.363 372.613H209.93V325.504H222.786V343.709H231.846ZM240.301 357.773C240.301 355.932 239.554 354.609 238.058 353.804C236.62 352.999 234.463 352.596 231.587 352.596H222.786V363.726H231.759C234.29 363.726 236.332 363.266 237.885 362.346C239.496 361.426 240.301 359.901 240.301 357.773Z" fill="white"/>
<path d="M259.064 356.562V349.737H278.697V356.562H259.064Z" fill="white"/>
<path d="M339.543 372.613H324.702L302.355 341.38V372.613H289.327V311.009H302.355V340.862L324.443 311.009H338.335L315.901 340.603L339.543 372.613Z" fill="white"/>
<path d="M365.589 324.555C371.916 324.555 376.748 325.935 380.084 328.696C383.478 331.4 385.175 335.57 385.175 341.207V372.613H376.201L373.699 366.229H373.354C372.031 367.897 370.651 369.277 369.213 370.37C367.832 371.463 366.221 372.24 364.381 372.7C362.598 373.217 360.383 373.476 357.737 373.476C354.976 373.476 352.474 372.959 350.231 371.923C348.045 370.83 346.319 369.191 345.054 367.005C343.788 364.762 343.156 361.943 343.156 358.55C343.156 353.545 344.91 349.864 348.419 347.506C351.928 345.09 357.191 343.767 364.208 343.537L372.405 343.278V341.207C372.405 338.734 371.743 336.922 370.421 335.771C369.155 334.621 367.372 334.046 365.071 334.046C362.77 334.046 360.527 334.391 358.341 335.081C356.155 335.714 353.97 336.519 351.784 337.497L347.556 328.782C350.087 327.46 352.877 326.424 355.925 325.676C359.031 324.929 362.253 324.555 365.589 324.555ZM367.401 350.957C363.259 351.072 360.383 351.82 358.773 353.2C357.162 354.581 356.357 356.393 356.357 358.636C356.357 360.592 356.932 362.001 358.082 362.864C359.233 363.669 360.728 364.072 362.569 364.072C365.33 364.072 367.66 363.266 369.558 361.656C371.456 359.988 372.405 357.658 372.405 354.667V350.784L367.401 350.957Z" fill="white"/>
<path d="M395.487 344.399C395.487 337.439 396.349 331.544 398.075 326.712C399.801 321.822 402.533 317.94 406.272 315.064C410.011 312.13 414.9 310.146 420.94 309.11C423.988 308.593 427.066 308.161 430.172 307.816C433.335 307.413 436.585 307.011 439.922 306.608L441.388 317.825C439.95 317.997 438.369 318.199 436.643 318.429C434.917 318.601 433.163 318.803 431.38 319.033C429.654 319.205 427.986 319.407 426.375 319.637C424.765 319.867 423.298 320.068 421.975 320.241C419.847 320.586 417.977 321.075 416.367 321.707C414.756 322.283 413.404 323.117 412.312 324.21C411.219 325.302 410.356 326.798 409.723 328.696C409.148 330.537 408.774 332.924 408.601 335.858H409.205C409.896 334.765 410.845 333.672 412.053 332.579C413.318 331.486 414.871 330.566 416.712 329.818C418.553 329.07 420.652 328.696 423.01 328.696C426.749 328.696 429.999 329.473 432.76 331.026C435.521 332.579 437.65 334.88 439.145 337.928C440.641 340.977 441.388 344.773 441.388 349.317C441.388 354.667 440.411 359.125 438.455 362.691C436.499 366.257 433.796 368.961 430.344 370.802C426.893 372.585 422.895 373.476 418.351 373.476C414.9 373.476 411.765 372.844 408.947 371.578C406.128 370.313 403.712 368.443 401.699 365.97C399.686 363.496 398.133 360.448 397.04 356.824C396.004 353.2 395.487 349.059 395.487 344.399ZM419.128 363.036C420.968 363.036 422.55 362.634 423.873 361.828C425.254 361.023 426.318 359.7 427.066 357.859C427.871 356.019 428.274 353.545 428.274 350.439C428.274 346.7 427.641 343.738 426.375 341.552C425.167 339.309 423.039 338.187 419.991 338.187C418.15 338.187 416.424 338.647 414.814 339.568C413.261 340.43 411.938 341.437 410.845 342.588C409.752 343.68 409.004 344.63 408.601 345.435C408.601 347.678 408.774 349.864 409.119 351.992C409.464 354.063 410.039 355.932 410.845 357.601C411.65 359.269 412.714 360.592 414.037 361.569C415.418 362.547 417.115 363.036 419.128 363.036Z" fill="white"/>
<path d="M471.42 324.641C475.792 324.641 479.531 325.475 482.637 327.143C485.801 328.811 488.245 331.227 489.971 334.391C491.697 337.554 492.559 341.437 492.559 346.039V352.251H462.188C462.303 355.875 463.367 358.722 465.381 360.793C467.451 362.864 470.299 363.899 473.923 363.899C476.971 363.899 479.732 363.611 482.206 363.036C484.679 362.404 487.239 361.454 489.885 360.189V370.111C487.584 371.262 485.139 372.096 482.551 372.613C480.02 373.189 476.942 373.476 473.319 373.476C468.602 373.476 464.432 372.613 460.808 370.888C457.184 369.105 454.337 366.43 452.266 362.864C450.195 359.297 449.16 354.811 449.16 349.404C449.16 343.882 450.08 339.309 451.921 335.685C453.819 332.004 456.436 329.243 459.772 327.402C463.109 325.561 466.991 324.641 471.42 324.641ZM471.507 333.787C469.033 333.787 466.963 334.592 465.294 336.203C463.684 337.813 462.735 340.315 462.447 343.709H480.48C480.48 341.811 480.135 340.114 479.445 338.619C478.812 337.123 477.834 335.944 476.511 335.081C475.188 334.218 473.52 333.787 471.507 333.787Z" fill="white"/>
<path d="M545.176 372.613H532.32V335.167H520.499C519.924 342.07 519.205 347.966 518.342 352.855C517.537 357.687 516.501 361.627 515.236 364.676C514.028 367.724 512.475 369.968 510.577 371.406C508.678 372.786 506.349 373.476 503.588 373.476C502.092 373.476 500.741 373.361 499.533 373.131C498.325 372.901 497.232 372.556 496.254 372.096V361.828C496.887 362.058 497.548 362.26 498.238 362.432C498.929 362.605 499.648 362.691 500.395 362.691C501.201 362.691 501.949 362.375 502.639 361.742C503.387 361.109 504.077 359.988 504.71 358.377C505.4 356.766 506.033 354.552 506.608 351.733C507.183 348.915 507.701 345.377 508.161 341.121C508.678 336.807 509.139 331.601 509.541 325.504H545.176V372.613Z" fill="white"/>
<path d="M580.51 343.709C585.342 343.709 589.34 344.227 592.504 345.262C595.667 346.24 597.997 347.764 599.492 349.835C601.046 351.906 601.822 354.494 601.822 357.601C601.822 360.649 601.103 363.295 599.665 365.538C598.284 367.782 596.07 369.536 593.021 370.802C589.973 372.01 585.975 372.613 581.028 372.613H558.595V325.504H571.451V343.709H580.51ZM588.966 357.773C588.966 355.932 588.218 354.609 586.723 353.804C585.285 352.999 583.128 352.596 580.252 352.596H571.451V363.726H580.424C582.955 363.726 584.997 363.266 586.55 362.346C588.161 361.426 588.966 359.901 588.966 357.773Z" fill="white"/>
<path d="M299.808 15.6797L388.937 63.2192L289.855 58.1769L299.808 15.6797Z" fill="white"/>
<path d="M245.709 46.3482L299.808 15.6796L321.116 27.1242L240.947 149.739L245.709 46.3482Z" fill="white"/>
<path d="M303.111 260.455L213.981 212.916L313.064 217.958L303.111 260.455Z" fill="white"/>
<path d="M357.21 229.787L303.111 260.456L281.803 249.011L361.972 126.397L357.21 229.787Z" fill="white"/>
<path d="M209.233 195.155L310.191 198.549L221.862 153.374L209.233 195.155Z" fill="white"/>
<path d="M177.717 141.546L209.233 195.155L233.409 195.898L225.287 49.6257L177.717 141.546Z" fill="white"/>
<path d="M392.137 83.3823L291.179 79.9881L379.508 125.163L392.137 83.3823Z" fill="white"/>
<path d="M423.654 136.992L392.137 83.3828L367.962 82.6402L376.083 228.912L423.654 136.992Z" fill="white"/>
<circle cx="300.734" cy="141.304" r="29.8742" fill="white"/>
</svg>
