<svg width="885" height="277" viewBox="0 0 885 277" fill="none" xmlns="http://www.w3.org/2000/svg">
<path d="M311.904 119.409C309.431 119.409 307.216 119.898 305.261 120.876C303.362 121.854 301.752 123.263 300.429 125.104C299.106 126.887 298.099 129.073 297.409 131.661C296.776 134.249 296.46 137.154 296.46 140.375C296.46 144.747 296.978 148.486 298.013 151.592C299.106 154.641 300.803 156.97 303.104 158.581C305.404 160.191 308.338 160.997 311.904 160.997C314.435 160.997 316.937 160.709 319.411 160.134C321.942 159.559 324.674 158.753 327.608 157.718V168.676C324.904 169.769 322.229 170.574 319.583 171.092C316.937 171.609 313.975 171.868 310.696 171.868C304.369 171.868 299.135 170.574 294.993 167.985C290.909 165.34 287.889 161.658 285.934 156.941C283.978 152.167 283 146.616 283 140.289C283 135.63 283.633 131.373 284.898 127.519C286.164 123.608 288.004 120.243 290.42 117.425C292.894 114.606 295.913 112.42 299.48 110.867C303.104 109.314 307.245 108.538 311.904 108.538C314.953 108.538 318.002 108.94 321.05 109.745C324.156 110.493 327.119 111.529 329.937 112.852L325.709 123.464C323.408 122.371 321.079 121.422 318.721 120.617C316.42 119.812 314.148 119.409 311.904 119.409Z" fill="white"/>
<path d="M381.423 136.234C381.423 138.765 380.618 140.922 379.007 142.705C377.454 144.488 375.124 145.639 372.018 146.156V146.501C375.297 146.904 377.914 148.026 379.87 149.866C381.883 151.707 382.89 154.065 382.89 156.941C382.89 158.955 382.487 160.824 381.682 162.55C380.934 164.275 379.726 165.771 378.058 167.036C376.39 168.302 374.233 169.28 371.587 169.97C368.998 170.66 365.835 171.005 362.096 171.005H339.663V123.896H362.096C365.777 123.896 369.056 124.298 371.932 125.104C374.866 125.851 377.166 127.117 378.834 128.9C380.56 130.683 381.423 133.128 381.423 136.234ZM369.602 156.251C369.602 154.411 368.883 153.088 367.445 152.282C366.007 151.419 363.85 150.988 360.974 150.988H352.519V162.118H361.233C363.649 162.118 365.633 161.687 367.186 160.824C368.797 159.904 369.602 158.379 369.602 156.251ZM368.394 137.269C368.394 135.774 367.819 134.681 366.669 133.991C365.518 133.3 363.821 132.955 361.578 132.955H352.519V142.274H360.111C362.815 142.274 364.857 141.9 366.237 141.152C367.675 140.347 368.394 139.052 368.394 137.269Z" fill="white"/>
<path d="M401.087 171.005H387.196L399.879 152.369C398.268 151.678 396.744 150.758 395.306 149.608C393.926 148.4 392.804 146.875 391.941 145.035C391.078 143.194 390.647 141.008 390.647 138.477C390.647 133.76 392.43 130.165 395.996 127.692C399.563 125.161 404.136 123.896 409.715 123.896H431.631V171.005H418.775V153.49H411.7L401.087 171.005ZM403.244 138.563C403.244 140.519 404.021 142.072 405.574 143.223C407.127 144.316 409.14 144.862 411.613 144.862H418.775V132.955H409.974C407.673 132.955 405.976 133.53 404.883 134.681C403.79 135.774 403.244 137.068 403.244 138.563Z" fill="white"/>
<path d="M462.241 123.033C465.635 123.033 468.798 123.493 471.732 124.413C474.723 125.276 477.11 126.628 478.893 128.469C480.734 130.309 481.654 132.668 481.654 135.544C481.654 138.362 480.792 140.605 479.066 142.274C477.398 143.942 475.126 145.15 472.25 145.897V146.329C474.263 146.789 476.075 147.45 477.685 148.313C479.296 149.119 480.561 150.24 481.482 151.678C482.46 153.059 482.949 154.928 482.949 157.287C482.949 159.875 482.115 162.291 480.446 164.534C478.836 166.72 476.305 168.503 472.854 169.884C469.46 171.207 465.088 171.868 459.739 171.868C457.208 171.868 454.821 171.753 452.577 171.523C450.334 171.293 448.292 170.977 446.451 170.574C444.611 170.114 443 169.567 441.62 168.935V158.322C443.575 159.242 445.963 160.076 448.781 160.824C451.657 161.572 454.706 161.946 457.927 161.946C460.285 161.946 462.385 161.773 464.225 161.428C466.124 161.083 467.619 160.508 468.712 159.702C469.863 158.897 470.438 157.833 470.438 156.51C470.438 155.245 469.949 154.209 468.971 153.404C467.993 152.541 466.526 151.908 464.571 151.506C462.615 151.103 460.113 150.902 457.064 150.902H452.06V142.015H456.805C461.062 142.015 464.341 141.67 466.641 140.979C469 140.289 470.179 138.995 470.179 137.097C470.179 135.601 469.431 134.48 467.936 133.732C466.44 132.926 463.995 132.524 460.602 132.524C458.358 132.524 455.914 132.783 453.268 133.3C450.622 133.818 448.12 134.566 445.761 135.544L441.965 126.57C444.668 125.535 447.631 124.701 450.852 124.068C454.073 123.378 457.869 123.033 462.241 123.033Z" fill="white"/>
<path d="M514.846 142.101C519.677 142.101 523.675 142.619 526.839 143.654C530.003 144.632 532.332 146.156 533.828 148.227C535.381 150.298 536.157 152.886 536.157 155.992C536.157 159.041 535.438 161.687 534 163.93C532.62 166.174 530.405 167.928 527.357 169.193C524.308 170.401 520.31 171.005 515.363 171.005H492.93V123.896H505.786V142.101H514.846ZM523.301 156.165C523.301 154.324 522.554 153.001 521.058 152.196C519.62 151.391 517.463 150.988 514.587 150.988H505.786V162.118H514.759C517.29 162.118 519.332 161.658 520.885 160.738C522.496 159.817 523.301 158.293 523.301 156.165Z" fill="white"/>
<path d="M542.064 154.954V148.129H561.697V154.954H542.064Z" fill="white"/>
<path d="M622.543 171.005H607.702L585.355 139.771V171.005H572.327V109.4H585.355V139.254L607.443 109.4H621.335L598.901 138.995L622.543 171.005Z" fill="white"/>
<path d="M648.589 122.947C654.916 122.947 659.748 124.327 663.084 127.088C666.478 129.792 668.175 133.962 668.175 139.599V171.005H659.201L656.699 164.62H656.354C655.031 166.289 653.651 167.669 652.213 168.762C650.832 169.855 649.221 170.631 647.381 171.092C645.598 171.609 643.383 171.868 640.737 171.868C637.976 171.868 635.474 171.35 633.231 170.315C631.045 169.222 629.319 167.583 628.054 165.397C626.788 163.154 626.156 160.335 626.156 156.941C626.156 151.937 627.91 148.256 631.419 145.897C634.928 143.482 640.191 142.159 647.208 141.928L655.405 141.67V139.599C655.405 137.125 654.743 135.314 653.421 134.163C652.155 133.013 650.372 132.438 648.071 132.438C645.77 132.438 643.527 132.783 641.341 133.473C639.155 134.106 636.97 134.911 634.784 135.889L630.556 127.174C633.087 125.851 635.877 124.816 638.925 124.068C642.031 123.32 645.253 122.947 648.589 122.947ZM650.401 149.349C646.259 149.464 643.383 150.211 641.773 151.592C640.162 152.973 639.357 154.784 639.357 157.028C639.357 158.983 639.932 160.393 641.082 161.256C642.233 162.061 643.728 162.463 645.569 162.463C648.33 162.463 650.66 161.658 652.558 160.048C654.456 158.379 655.405 156.05 655.405 153.059V149.176L650.401 149.349Z" fill="white"/>
<path d="M678.487 142.791C678.487 135.831 679.349 129.935 681.075 125.104C682.801 120.214 685.533 116.332 689.272 113.456C693.011 110.522 697.9 108.538 703.94 107.502C706.988 106.984 710.066 106.553 713.172 106.208C716.335 105.805 719.585 105.403 722.922 105L724.388 116.217C722.95 116.389 721.369 116.59 719.643 116.821C717.917 116.993 716.163 117.194 714.38 117.425C712.654 117.597 710.986 117.798 709.375 118.029C707.765 118.259 706.298 118.46 704.975 118.632C702.847 118.978 700.977 119.467 699.367 120.099C697.756 120.674 696.404 121.509 695.312 122.601C694.219 123.694 693.356 125.19 692.723 127.088C692.148 128.929 691.774 131.316 691.601 134.249H692.205C692.896 133.157 693.845 132.064 695.053 130.971C696.318 129.878 697.871 128.957 699.712 128.21C701.553 127.462 703.652 127.088 706.01 127.088C709.749 127.088 712.999 127.865 715.76 129.418C718.521 130.971 720.65 133.272 722.145 136.32C723.641 139.369 724.388 143.165 724.388 147.709C724.388 153.059 723.411 157.517 721.455 161.083C719.499 164.649 716.796 167.353 713.344 169.193C709.893 170.977 705.895 171.868 701.351 171.868C697.9 171.868 694.765 171.235 691.947 169.97C689.128 168.704 686.712 166.835 684.699 164.362C682.686 161.888 681.133 158.84 680.04 155.216C679.004 151.592 678.487 147.45 678.487 142.791ZM702.128 161.428C703.968 161.428 705.55 161.025 706.873 160.22C708.254 159.415 709.318 158.092 710.066 156.251C710.871 154.411 711.274 151.937 711.274 148.831C711.274 145.092 710.641 142.13 709.375 139.944C708.167 137.701 706.039 136.579 702.991 136.579C701.15 136.579 699.424 137.039 697.814 137.96C696.261 138.822 694.938 139.829 693.845 140.979C692.752 142.072 692.004 143.021 691.601 143.827C691.601 146.07 691.774 148.256 692.119 150.384C692.464 152.455 693.039 154.324 693.845 155.992C694.65 157.66 695.714 158.983 697.037 159.961C698.418 160.939 700.115 161.428 702.128 161.428Z" fill="white"/>
<path d="M754.42 123.033C758.792 123.033 762.531 123.867 765.637 125.535C768.801 127.203 771.245 129.619 772.971 132.783C774.697 135.946 775.559 139.829 775.559 144.431V150.643H745.188C745.303 154.267 746.367 157.114 748.381 159.185C750.451 161.256 753.299 162.291 756.923 162.291C759.971 162.291 762.732 162.003 765.206 161.428C767.679 160.795 770.239 159.846 772.885 158.581V168.503C770.584 169.654 768.139 170.488 765.551 171.005C763.02 171.581 759.942 171.868 756.319 171.868C751.602 171.868 747.432 171.005 743.808 169.28C740.184 167.497 737.337 164.822 735.266 161.256C733.195 157.689 732.16 153.203 732.16 147.796C732.16 142.274 733.08 137.701 734.921 134.077C736.819 130.396 739.436 127.635 742.772 125.794C746.109 123.953 749.991 123.033 754.42 123.033ZM754.507 132.179C752.033 132.179 749.963 132.984 748.294 134.595C746.684 136.205 745.735 138.707 745.447 142.101H763.48C763.48 140.203 763.135 138.506 762.445 137.01C761.812 135.515 760.834 134.336 759.511 133.473C758.188 132.61 756.52 132.179 754.507 132.179Z" fill="white"/>
<path d="M828.176 171.005H815.32V133.559H803.499C802.924 140.462 802.205 146.358 801.342 151.247C800.537 156.079 799.501 160.019 798.236 163.067C797.028 166.116 795.475 168.359 793.577 169.797C791.678 171.178 789.349 171.868 786.588 171.868C785.092 171.868 783.741 171.753 782.533 171.523C781.325 171.293 780.232 170.948 779.254 170.488V160.22C779.887 160.45 780.548 160.652 781.238 160.824C781.929 160.997 782.648 161.083 783.395 161.083C784.201 161.083 784.949 160.767 785.639 160.134C786.387 159.501 787.077 158.379 787.71 156.769C788.4 155.158 789.033 152.944 789.608 150.125C790.183 147.307 790.701 143.769 791.161 139.513C791.678 135.199 792.139 129.993 792.541 123.896H828.176V171.005Z" fill="white"/>
<path d="M863.51 142.101C868.342 142.101 872.34 142.619 875.504 143.654C878.667 144.632 880.997 146.156 882.492 148.227C884.046 150.298 884.822 152.886 884.822 155.992C884.822 159.041 884.103 161.687 882.665 163.93C881.284 166.174 879.07 167.928 876.021 169.193C872.973 170.401 868.975 171.005 864.028 171.005H841.595V123.896H854.451V142.101H863.51ZM871.966 156.165C871.966 154.324 871.218 153.001 869.723 152.196C868.285 151.391 866.128 150.988 863.252 150.988H854.451V162.118H863.424C865.955 162.118 867.997 161.658 869.55 160.738C871.161 159.817 871.966 158.293 871.966 156.165Z" fill="white"/>
<path d="M123.766 15.6797L212.895 63.2192L113.813 58.1769L123.766 15.6797Z" fill="white"/>
<path d="M69.6677 46.3482L123.767 15.6796L145.074 27.1242L64.9049 149.739L69.6677 46.3482Z" fill="white"/>
<path d="M127.068 260.455L37.9391 212.916L137.022 217.958L127.068 260.455Z" fill="white"/>
<path d="M181.167 229.787L127.068 260.456L105.761 249.011L185.93 126.397L181.167 229.787Z" fill="white"/>
<path d="M33.1914 195.155L134.149 198.549L45.8202 153.374L33.1914 195.155Z" fill="white"/>
<path d="M1.67464 141.546L33.1913 195.155L57.3667 195.898L49.2452 49.6257L1.67464 141.546Z" fill="white"/>
<path d="M216.095 83.3823L115.137 79.9881L203.466 125.163L216.095 83.3823Z" fill="white"/>
<path d="M247.611 136.992L216.095 83.3828L191.919 82.6402L200.041 228.912L247.611 136.992Z" fill="white"/>
<circle cx="124.692" cy="141.304" r="29.8742" fill="white"/>
</svg>
